HIERARCHY
ROOT SpineBase
{
  OFFSET 0.000000 0.000000 0.000000
  CHANNELS 6 Xposition Yposition Zposition Zrotation Xrotation Yrotation
  JOINT SpineMid
  {
    OFFSET 0.000000 31.279111 0.000000
    CHANNELS 3 Zrotation Xrotation Yrotation
    JOINT SpineShoulder
    {
      OFFSET -0.150476 23.414160 -0.528747
      CHANNELS 3 Zrotation Xrotation Yrotation
      JOINT Neck
      {
        OFFSET -0.099929 7.793352 -0.431354
        CHANNELS 3 Zrotation Xrotation Yrotation
        JOINT Head
        {
          OFFSET -13.179733 -0.891579 11.974763
          CHANNELS 3 Zrotation Xrotation Yrotation
          End Site
          {
            OFFSET 0 0 0
          }
        }
      }
      JOINT ShoulderLeft
      {
        OFFSET -7.702429 -4.101504 -1.490825
        CHANNELS 3 Zrotation Xrotation Yrotation
        JOINT ElbowLeft
        {
          OFFSET -8.257639 -22.257132 13.816045
          CHANNELS 3 Zrotation Xrotation Yrotation
          JOINT WristLeft
          {
            OFFSET 0.554561 -21.789823 9.274581
            CHANNELS 3 Zrotation Xrotation Yrotation
            JOINT HandLeft
            {
              OFFSET -0.457020 -6.322839 0.953766
              CHANNELS 3 Zrotation Xrotation Yrotation
              JOINT HandTipLeft
              {
                OFFSET -0.566929 0.291115 -0.733212
                CHANNELS 3 Zrotation Xrotation Yrotation
                End Site
                {
                  OFFSET 0 0 0
                }
              }
              JOINT ThumbLeft
              {
                OFFSET -0.200870 0.582080 -1.971192
                CHANNELS 3 Zrotation Xrotation Yrotation
                End Site
                {
                  OFFSET 0 0 0
                }
              }
            }
          }
        }
      }
      JOINT ShoulderRight
      {
        OFFSET 7.774805 -5.366798 -13.391602
        CHANNELS 3 Zrotation Xrotation Yrotation
        JOINT ElbowRight
        {
          OFFSET 4.257473 -28.174087 -0.513709
          CHANNELS 3 Zrotation Xrotation Yrotation
          JOINT WristRight
          {
            OFFSET 10.515455 -16.091121 9.066877
            CHANNELS 3 Zrotation Xrotation Yrotation
            JOINT HandRight
            {
              OFFSET -4.709078 -7.442548 -7.522475
              CHANNELS 3 Zrotation Xrotation Yrotation
              JOINT HandTipRight
              {
                OFFSET -0.053978 -1.501002 -0.824583
                CHANNELS 3 Zrotation Xrotation Yrotation
                End Site
                {
                  OFFSET 0 0 0
                }
              }
              JOINT ThumbRight
              {
                OFFSET -0.353127 3.502415 -2.648860
                CHANNELS 3 Zrotation Xrotation Yrotation
                End Site
                {
                  OFFSET 0 0 0
                }
              }
            }
          }
        }
      }
    }
  }
  JOINT HipLeft
  {
    OFFSET -5.110316 0.123037 -1.106466
    CHANNELS 3 Zrotation Xrotation Yrotation
    JOINT KneeLeft
    {
      OFFSET -3.542364 -25.995178 2.327997
      CHANNELS 3 Zrotation Xrotation Yrotation
      JOINT AnkleLeft
      {
        OFFSET -4.126451 -24.591041 -1.083585
        CHANNELS 3 Zrotation Xrotation Yrotation
        JOINT FootLeft
        {
          OFFSET 4.422844 -6.188797 -3.813656
          CHANNELS 3 Zrotation Xrotation Yrotation
          End Site
          {
            OFFSET 0 0 0
          }
        }
      }
    }
  }
  JOINT HipRight
  {
    OFFSET 4.576303 2.437011 -5.489709
    CHANNELS 3 Zrotation Xrotation Yrotation
    JOINT KneeRight
    {
      OFFSET 0.328579 -26.818914 -0.743504
      CHANNELS 3 Zrotation Xrotation Yrotation
      JOINT AnkleRight
      {
        OFFSET -2.112412 -29.146036 -3.492308
        CHANNELS 3 Zrotation Xrotation Yrotation
        JOINT FootRight
        {
          OFFSET -4.181230 -8.147162 3.061132
          CHANNELS 3 Zrotation Xrotation Yrotation
          End Site
          {
            OFFSET 0 0 0
          }
        }
      }
    }
  }
}
MOTION
Frames: 11
Frame Time: 0.033333
43.023581 62.364395 360.389275 0.664567 0.493302 15.462115 -0.772038 -0.298241 -15.466986 -0.846225 -0.557773 -0.058099 -37.244596 -55.269669 25.414786 0.000000 0.000000 0.000000 3.950935 4.405386 0.429657 0.923412 -1.109977 1.360969 -3.740385 3.376237 -2.311317 -6.013828 3.948210 7.319292 0.000000 0.000000 0.000000 0.000000 0.000000 0.000000 6.793948 3.600004 0.183017 -15.208841 8.498743 2.456371 57.491723 -60.533882 54.243639 -14.101412 16.344919 -17.181912 0.000000 0.000000 0.000000 0.000000 0.000000 0.000000 -4.427388 -13.370908 -14.064673 2.672215 8.979994 -1.678612 -14.935718 21.020030 21.341307 0.000000 0.000000 0.000000 -8.081200 7.594667 -14.676985 -0.316168 -15.242794 0.218861 -6.438612 21.505755 -10.015701 0.000000 0.000000 0.000000
43.587034 62.494763 360.141072 0.754003 0.726073 15.446837 -0.920184 -0.498954 -15.455621 -0.000000 0.000000 0.000000 -35.280097 -56.247844 30.076212 0.000000 0.000000 0.000000 2.408145 3.084956 0.292554 1.606524 -0.354671 1.494510 -2.307636 14.056105 -3.127336 1.250242 -16.085808 7.873792 0.000000 0.000000 0.000000 0.000000 0.000000 0.000000 4.992662 2.866611 0.215662 -14.225120 8.664401 2.553710 48.494181 -58.793055 46.318226 -10.306823 13.952315 -20.403116 0.000000 0.000000 0.000000 0.000000 0.000000 0.000000 -3.982976 -15.318889 -13.739036 2.131547 10.148075 -1.956467 -16.406127 23.072037 23.547150 0.000000 0.000000 0.000000 -7.934882 7.838415 -14.680144 -1.504841 -16.683356 0.070277 -6.443688 38.730122 -16.873306 0.000000 0.000000 0.000000
44.315243 62.507094 360.074709 0.720291 1.016519 14.302866 -0.949179 -0.806966 -14.315940 -0.000000 0.000000 0.000000 -33.036754 -57.416573 34.455915 0.000000 0.000000 0.000000 0.666450 1.532622 -0.165598 3.553649 1.272571 2.045263 1.837373 25.685625 -4.686348 13.015853 -37.971525 19.600951 0.000000 0.000000 0.000000 0.000000 0.000000 0.000000 3.274357 2.757894 0.276956 -12.809216 8.828348 2.493420 44.685016 -57.417056 42.314722 -8.378628 12.676484 -21.556677 0.000000 0.000000 0.000000 0.000000 0.000000 0.000000 -4.541660 -15.489643 -12.761823 3.511792 10.035624 -2.121642 -16.739849 24.583955 24.355527 0.000000 0.000000 0.000000 -9.840343 7.700897 -13.406970 0.727777 -16.313123 0.172347 -4.840240 54.723570 -25.559778 0.000000 0.000000 0.000000
44.956124 62.419377 360.242027 0.494068 1.135220 14.638130 -0.765014 -0.973450 -14.649523 -0.000000 0.000000 0.000000 -30.932249 -59.289046 39.238814 0.000000 0.000000 0.000000 -0.067868 1.264185 -0.513828 4.229362 1.581226 2.371464 3.516501 31.560033 -5.753918 91.156336 -50.782387 82.028677 0.000000 0.000000 0.000000 0.000000 0.000000 0.000000 2.170444 3.018339 0.358248 -12.571152 8.836984 2.131945 47.133653 -56.390499 39.732100 -8.961597 12.544193 -18.877124 0.000000 0.000000 0.000000 0.000000 0.000000 0.000000 -3.948111 -13.776983 -13.254528 3.312609 8.085787 -1.707163 -17.299719 24.327637 24.768451 0.000000 0.000000 0.000000 -13.098759 6.938430 -13.559829 6.057102 -13.051466 0.456074 -1.127528 64.335160 -35.379994 0.000000 0.000000 0.000000
45.732604 62.254113 360.305344 0.377507 1.623203 14.617671 -0.865793 -0.056948 -14.635611 -0.128869 -0.110658 -0.016621 -30.395172 -62.651210 41.512944 0.000000 0.000000 0.000000 0.402949 0.071777 -0.576416 4.473797 1.544362 2.518843 3.909780 31.864766 -5.943926 122.671528 -42.963899 101.122742 0.000000 0.000000 0.000000 0.000000 0.000000 0.000000 1.803193 2.552488 0.557482 -13.553849 8.392623 0.955949 53.594288 -54.580726 36.694108 -12.514151 13.617314 -11.459069 0.000000 0.000000 0.000000 0.000000 0.000000 0.000000 -1.072189 -10.933224 -13.223084 -1.510508 1.175315 0.016322 -10.780087 29.812286 22.582965 0.000000 0.000000 0.000000 -15.567502 6.266331 -13.509245 8.962779 -11.448695 0.497419 3.783939 69.442104 -43.465402 0.000000 0.000000 0.000000
46.577913 62.162157 360.576150 0.296682 2.110344 16.490562 -0.738794 -0.036957 -16.505562 -0.163781 -0.168184 -0.015955 -25.742262 -64.622101 49.500605 0.000000 0.000000 0.000000 0.726710 1.288265 -1.005719 4.002278 0.058139 2.995369 1.986933 25.049442 -4.587696 126.621456 -42.777001 98.139366 0.000000 0.000000 0.000000 0.000000 0.000000 0.000000 0.391931 3.221633 0.766640 -14.658554 7.657419 -0.770361 63.250436 -52.723803 34.142616 -18.204370 12.347018 -1.458404 0.000000 0.000000 0.000000 0.000000 0.000000 0.000000 2.439118 -5.802083 -15.523972 -6.186333 -7.565146 1.095566 -9.480632 34.253983 24.910336 0.000000 0.000000 0.000000 -17.693037 6.078334 -15.347238 11.691972 -9.753242 0.480967 1.280387 70.110941 -43.497285 0.000000 0.000000 0.000000
47.287926 62.166399 360.908601 -0.153856 2.627532 18.990631 -0.703570 0.208920 -19.006034 -0.270161 -0.157946 -0.037218 -30.044640 -66.870790 44.209834 0.000000 0.000000 0.000000 3.338412 3.882971 -1.001662 2.089731 -2.579260 3.160370 -0.164293 22.382602 -4.258796 131.287697 -44.802339 97.232273 0.000000 0.000000 0.000000 0.000000 0.000000 0.000000 -0.573297 4.186683 1.119158 -15.705214 6.551454 -2.806728 72.369278 -50.744776 30.580655 -22.464503 11.118774 6.851511 0.000000 0.000000 0.000000 0.000000 0.000000 0.000000 7.141369 -0.266795 -18.850242 -11.047052 -16.228646 1.105285 -10.651814 37.875157 29.972846 0.000000 0.000000 0.000000 -18.513582 6.042403 -17.873278 13.148037 -8.238716 0.435285 5.894036 74.471285 -52.000812 0.000000 0.000000 0.000000
47.932892 62.158630 361.428258 -0.873379 3.257879 20.815021 -0.625544 0.288500 -20.821792 -0.366800 -0.223508 -0.067627 -34.069332 -67.539033 38.127899 0.000000 0.000000 0.000000 4.543627 4.356955 -1.095907 0.055251 -4.641990 2.474676 -1.013574 16.345496 -2.689081 130.597676 -52.111927 90.363492 0.000000 0.000000 0.000000 0.000000 0.000000 0.000000 -0.985789 5.882146 1.605196 -16.977789 4.993314 -5.125473 82.422931 -49.894389 30.406517 -27.760163 9.329965 15.316330 0.000000 0.000000 0.000000 0.000000 0.000000 0.000000 12.538427 4.364459 -21.705620 -15.743837 -23.466534 0.082583 -14.761894 40.025740 37.531637 0.000000 0.000000 0.000000 -18.840276 5.880785 -19.785089 14.228766 -7.213170 0.397584 4.407324 74.092899 -51.315990 0.000000 0.000000 0.000000
48.369570 62.145789 362.027258 -1.750530 3.839983 22.880174 -0.512789 0.247430 -22.866495 -0.305404 -0.256908 -0.087808 -29.679077 -68.038109 43.139853 0.000000 0.000000 0.000000 1.839452 -0.780249 -1.404810 0.861540 -2.806153 1.577546 -4.696201 20.650711 -1.395901 141.072869 -51.696075 92.190464 0.000000 0.000000 0.000000 0.000000 0.000000 0.000000 -1.812300 6.976332 2.007430 -17.439810 4.040016 -6.896915 89.110740 -48.561608 26.517562 -32.077155 5.752912 24.033634 0.000000 0.000000 0.000000 0.000000 0.000000 0.000000 18.136262 7.596871 -24.769981 -20.139508 -28.611437 -1.615086 -21.620678 38.784663 46.353816 0.000000 0.000000 0.000000 -18.656628 5.796818 -21.936358 15.152107 -6.591013 0.361772 3.830036 72.230941 -49.540037 0.000000 0.000000 0.000000
48.662171 62.080117 362.805562 -2.437796 4.291922 23.615581 -0.515862 0.245590 -23.584324 -0.323016 -0.252300 -0.111855 -22.755858 -67.489017 50.874139 0.000000 0.000000 0.000000 2.758395 -1.925935 -0.936944 -2.162635 -3.742476 -0.202711 -2.817324 15.642736 0.198991 141.933337 -59.328518 88.328507 0.000000 0.000000 0.000000 0.000000 0.000000 0.000000 -2.744409 8.390827 2.498241 -17.099351 2.710332 -8.396483 93.223737 -47.670239 22.886953 -34.445560 3.006953 29.674500 0.000000 0.000000 0.000000 0.000000 0.000000 0.000000 22.342695 9.750540 -26.289344 -22.983667 -30.601654 -3.153576 -29.359617 33.292914 53.737165 0.000000 0.000000 0.000000 -18.702840 6.077485 -22.655505 16.138316 -6.614336 0.372030 11.715758 72.980946 -56.415241 0.000000 0.000000 0.000000
48.780317 61.987396 363.699401 -3.140016 4.743333 22.459702 -0.496151 0.101658 -22.404602 -0.271574 -0.301821 -0.129943 -14.429048 -67.421302 61.592582 0.000000 0.000000 0.000000 5.911673 -0.326125 0.149825 -5.121386 -4.759963 -1.410433 -0.509984 16.287716 0.222467 148.083283 -69.759565 92.977320 0.000000 0.000000 0.000000 0.000000 0.000000 0.000000 -4.199308 9.680861 2.996942 -15.527747 1.329922 -9.193388 96.140165 -47.667566 20.998375 -37.381566 2.938779 33.332836 0.000000 0.000000 0.000000 0.000000 0.000000 0.000000 25.001122 10.656037 -25.330397 -24.098323 -28.863380 -3.978657 -35.432487 28.384827 59.004369 0.000000 0.000000 0.000000 -18.735287 6.281086 -21.468283 17.261902 -6.586349 0.423599 23.248415 72.919005 -66.179095 0.000000 0.000000 0.000000
